# xmcd
#
# Track frame offsets:
#	150
#	10540
#	22367
#	33932
#	44810
#	54320
#	67335
#	79910
#	93335
#	107307
#	120825
#	134082
#	148240
#	159765
#	173220
#	188915
#	209327
#	222092
#	233520
#	245357
#	265657
#	279347
#	293340
#	315805
#
# Disc length: 4362 seconds
# Revision: 3
# Processed by: cddbd v1.5.2PL0 Copyright (c) Steve Scherf et al.
# Submitted via: dBpowerAMP V12.0
#
DISCID=47110818
DTITLE=Little Walter - The Chess Years 1952-1963 [Disc 4]
DYEAR=1900
DGENRE=Blues
TTITLE0=I Don't Play
TTITLE1=As Long as I Have You
TTITLE2=You Don't Know
TTITLE3=Just Your Fool
TTITLE4=Up the Line
TTITLE5=I'm a Business Man
TTITLE6=Dead President's
TTITLE7=Blue Midnight (Alt)
TTITLE8=Juke[alternate Take]
TTITLE9=Blue Midnight[alternate Take]
TTITLE10=Off the Wall[alternate Take]
TTITLE11=My Kind of Baby
TTITLE12=Can't Stop Loving You
TTITLE13=Instrumental
TTITLE14=One More Chance With You
TTITLE15=Temperature[take 35/36]
TTITLE16=Ah'W Baby [alternate Take]
TTITLE17=Rock Bottom [alternate Take]
TTITLE18=Walkin' on [alternate Take]
TTITLE19=Everything's Gonna Be Alright [take 1]
TTITLE20=Everything's Gonna Be Alright [alternate Take]
TTITLE21=Mean Old Frisco[take 1/2]
TTITLE22=Blue and Lonesome [take 1]
TTITLE23=My Babe
EXTD=
EXTT0=
EXTT1=
EXTT2=
EXTT3=
EXTT4=
EXTT5=
EXTT6=
EXTT7=
EXTT8=
EXTT9=
EXTT10=
EXTT11=
EXTT12=
EXTT13=
EXTT14=
EXTT15=
EXTT16=
EXTT17=
EXTT18=
EXTT19=
EXTT20=
EXTT21=
EXTT22=
EXTT23=
PLAYORDER=
